<svg width="168" height="112" viewBox="0 0 168 112" fill="none" xmlns="http://www.w3.org/2000/svg">
<path fill-rule="evenodd" clip-rule="evenodd" d="M28 110C13.664 110 2 98.336 2 84C2 69.663 13.664 58 28 58C42.337 58 54 69.663 54 84C54 98.336 42.337 110 28 110ZM28 56C12.561 56 0 68.561 0 84C0 99.439 12.561 112 28 112C43.439 112 56 99.439 56 84C56 68.561 43.439 56 28 56ZM23.954 89.744C18.556 89.744 14.164 85.351 14.164 79.954C14.164 74.555 18.556 70.162 23.954 70.162C29.352 70.162 33.744 74.555 33.744 79.953C33.744 85.351 29.352 89.744 23.954 89.744ZM32.961 87.546C34.7589 85.4246 35.7452 82.7338 35.744 79.953C35.744 73.451 30.455 68.163 23.954 68.163C17.452 68.163 12.164 73.451 12.164 79.953C12.164 86.455 17.452 91.744 23.954 91.744C26.846 91.744 29.494 90.694 31.547 88.96L41.435 98.85C41.5276 98.9435 41.6378 99.0176 41.7592 99.0683C41.8807 99.1189 42.0109 99.145 42.1425 99.145C42.2741 99.145 42.4043 99.1189 42.5258 99.0683C42.6472 99.0176 42.7574 98.9435 42.85 98.85C42.943 98.7571 43.0167 98.6468 43.0671 98.5254C43.1174 98.404 43.1433 98.2739 43.1433 98.1425C43.1433 98.0111 43.1174 97.881 43.0671 97.7596C43.0167 97.6382 42.943 97.5279 42.85 97.435L32.961 87.546Z" fill="#B6116E"/>
</svg>